<?xml version="1.0" encoding="UTF-8"?>
<svg version="1.1" xmlns="http://www.w3.org/2000/svg" width="2480" height="1748">
<path d="M0 0 C1.05486603 -0.00983917 2.10973206 -0.01967834 3.19656372 -0.02981567 C26.30091564 -0.20087423 48.88189436 -0.18147503 71.640625 4.23828125 C72.87248535 4.47434082 74.1043457 4.71040039 75.37353516 4.95361328 C106.59335137 11.1464685 135.20487872 23.08741363 163.85546875 36.64453125 C177.20855536 42.95415257 190.45841909 49.01788906 204.640625 53.23828125 C205.64138062 53.53653809 205.64138062 53.53653809 206.66235352 53.84082031 C215.91283083 56.38659508 228.1142407 57.35181901 236.7265625 52.546875 C237.67402344 51.89912109 237.67402344 51.89912109 238.640625 51.23828125 C239.33414063 50.77550781 240.02765625 50.31273437 240.7421875 49.8359375 C254.85882986 39.02375262 257.59332738 16.42747171 261.640625 0.23828125 C268.240625 0.23828125 274.840625 0.23828125 281.640625 0.23828125 C282.41012589 30.19994896 283.17523039 60.16172578 283.93371862 90.12367426 C284.02381168 93.68238528 284.11394435 97.24109529 284.20410156 100.79980469 C284.22204525 101.50810906 284.23998894 102.21641343 284.25847638 102.94618157 C284.54693166 114.32887956 284.838577 125.71149361 285.13145745 137.09407851 C285.43319405 148.82369548 285.73137245 160.55339924 286.02642727 172.2831862 C286.1917213 178.85051308 286.35863007 185.41779188 286.52944946 191.98497772 C287.25904299 220.07519757 287.86018072 248.13776225 287.640625 276.23828125 C279.060625 276.23828125 270.480625 276.23828125 261.640625 276.23828125 C261.228125 274.30210937 260.815625 272.3659375 260.390625 270.37109375 C253.64397265 239.26241048 244.65454628 209.44897641 229.640625 181.23828125 C229.0825415 180.172146 229.0825415 180.172146 228.51318359 179.08447266 C218.59095934 160.20210416 206.2699325 143.46528338 191.89453125 127.71484375 C190.3664054 126.0357592 188.85376642 124.34247302 187.35546875 122.63671875 C182.7369441 117.39235629 177.98334746 112.72796399 172.640625 108.23828125 C171.65707031 107.366875 170.67351563 106.49546875 169.66015625 105.59765625 C156.61273464 94.07243383 142.59565434 83.82285995 127.43212891 75.25146484 C125.67447512 74.25742516 123.92887071 73.24217564 122.18359375 72.2265625 C107.70952674 63.9928118 91.95805991 58.12366888 75.890625 53.86328125 C75.04242187 53.63688965 74.19421875 53.41049805 73.3203125 53.17724609 C57.52195728 49.23062245 41.95046908 47.70820039 25.703125 47.86328125 C24.82910034 47.86793396 23.95507568 47.87258667 23.05456543 47.87738037 C10.40789448 47.95622351 -2.02132422 48.19034926 -14.359375 51.23828125 C-15.16068848 51.43164062 -15.96200195 51.625 -16.78759766 51.82421875 C-48.60396105 59.78598877 -76.99612882 78.08202192 -94.22265625 106.4765625 C-107.41075336 129.16531489 -111.55110164 155.48648872 -105.19628906 181.16235352 C-98.50430313 205.42221315 -81.47165263 226.31138323 -62.359375 242.23828125 C-61.43898438 243.04652344 -60.51859375 243.85476563 -59.5703125 244.6875 C-30.75252189 269.8984838 4.58047662 286.63810699 38.39013672 304.04077148 C41.73588219 305.76665144 45.07376476 307.50728886 48.41064453 309.25024414 C60.56330628 315.58947125 72.75514979 321.8331211 85.03125 327.9296875 C86.00405442 328.41317563 86.00405442 328.41317563 86.99651146 328.9064312 C92.96129764 331.87070286 98.92781898 334.83144878 104.89941406 337.78198242 C120.95627136 345.7189132 136.76284017 353.89799843 152.26963806 362.88058472 C155.30838204 364.62065848 158.37759855 366.30047924 161.45690918 367.96746826 C192.45506938 384.78965213 223.10175429 404.55981358 249.75390625 427.75390625 C252.38941662 430.02208568 255.08796473 432.16171514 257.828125 434.30078125 C269.92875877 444.16253124 281.30109109 455.72463528 290.640625 468.23828125 C291.12305664 468.87137207 291.60548828 469.50446289 292.10253906 470.15673828 C299.84236599 480.34257608 306.61199738 490.75521518 312.52490234 502.10058594 C313.58313645 504.12813469 314.66629806 506.14044723 315.75390625 508.15234375 C343.83721406 561.04875425 346.46257351 627.70261114 329.1953125 684.35546875 C320.26774567 712.72725406 306.13719456 737.99852584 287.640625 761.23828125 C287.19348145 761.80256836 286.74633789 762.36685547 286.28564453 762.94824219 C279.72460399 771.13206122 272.4632661 778.61098841 265.078125 786.05078125 C264.21582275 786.9224292 263.35352051 787.79407715 262.46508789 788.69213867 C256.49934465 794.62850792 250.23300053 800.01174569 243.640625 805.23828125 C242.55699527 806.11942728 241.47359969 807.00086151 240.390625 807.8828125 C203.25217025 837.16099771 158.8646176 854.48649065 112.515625 862.42578125 C111.61110596 862.58087158 110.70658691 862.73596191 109.7746582 862.89575195 C106.73477385 863.38795947 103.69205817 863.82333232 100.640625 864.23828125 C99.68937241 864.3706871 99.68937241 864.3706871 98.71890259 864.50576782 C84.92330468 866.36883564 71.18859367 866.57875628 57.2824707 866.55395508 C53.60793008 866.55080679 49.93420685 866.57430567 46.25976562 866.59960938 C25.42224453 866.65611507 4.7891461 865.02017587 -15.609375 860.61328125 C-16.80224121 860.35877197 -17.99510742 860.1042627 -19.22412109 859.84204102 C-51.6504465 852.67079369 -82.64387725 840.59857057 -113.22583008 827.86230469 C-122.09900715 824.22055804 -131.01949682 821.40009575 -140.359375 819.23828125 C-141.14441406 819.04105469 -141.92945313 818.84382813 -142.73828125 818.640625 C-161.6939878 815.73088167 -176.71147919 820.32648474 -192.2421875 831.26953125 C-204.40865507 840.62313863 -211.17375219 853.00761069 -218.359375 866.23828125 C-226.279375 866.23828125 -234.199375 866.23828125 -242.359375 866.23828125 C-242.359375 762.94828125 -242.359375 659.65828125 -242.359375 553.23828125 C-234.439375 553.23828125 -226.519375 553.23828125 -218.359375 553.23828125 C-217.77671875 555.708125 -217.1940625 558.17796875 -216.59375 560.72265625 C-202.54899703 619.48575024 -181.69717963 677.35523663 -142.359375 724.23828125 C-141.94284668 724.74359375 -141.52631836 725.24890625 -141.09716797 725.76953125 C-130.79713598 738.25174221 -119.74103843 750.14765879 -106.984375 760.16015625 C-105.23910773 761.54182617 -103.52940963 762.96968823 -101.859375 764.44140625 C-67.8962752 794.25784852 -23.98484877 813.9616057 20.640625 820.23828125 C21.86604004 820.41335205 23.09145508 820.58842285 24.35400391 820.76879883 C28.87451986 821.32446627 33.35563752 821.41766705 37.90625 821.44140625 C38.77973083 821.44710632 39.65321167 821.4528064 40.55316162 821.4586792 C42.39871023 821.46808081 44.24427526 821.4746438 46.08984375 821.47851562 C48.84146682 821.48810985 51.5923052 821.51913271 54.34375 821.55078125 C95.44499034 821.79682742 134.22137424 808.51959284 163.828125 779.48828125 C185.86843553 757.19730422 197.9026429 728.79456657 197.88964844 697.37719727 C197.36888188 664.7124489 181.41401814 635.74616346 159.11669922 612.76123047 C157.70801422 611.30781051 156.31643025 609.83787386 154.92578125 608.3671875 C128.27618912 580.7784027 91.61503409 562.27341387 57.90600586 544.93505859 C55.52449335 543.69756238 53.15145966 542.44881622 50.78344727 541.18603516 C40.92880979 535.94000517 30.98985548 530.87688906 20.99609375 525.90234375 C20.34494347 525.57809292 19.69379318 525.25384209 19.02291107 524.91976547 C12.93297836 521.88792221 6.84061679 518.86097984 0.74584961 515.83886719 C-15.06218151 507.99797066 -30.76626924 500.03995563 -46.18502808 491.44885254 C-48.10126502 490.38198441 -50.02158741 489.32334547 -51.94555664 488.27050781 C-82.20334324 471.6952831 -112.47693521 453.98543587 -139.359375 432.23828125 C-140.28105469 431.50738281 -141.20273438 430.77648437 -142.15234375 430.0234375 C-159.88908656 415.78901344 -177.76463857 399.52453456 -191.359375 381.23828125 C-192.23162252 380.09493892 -193.10402961 378.95171832 -193.9765625 377.80859375 C-215.95003907 348.72424535 -231.80275701 316.24389317 -238.359375 280.23828125 C-238.52163574 279.38782227 -238.68389648 278.53736328 -238.85107422 277.66113281 C-249.38630613 220.40774657 -236.57349519 158.52374743 -204.359375 110.23828125 C-201.51663023 106.11413912 -198.48265287 102.1536134 -195.359375 98.23828125 C-194.64265625 97.32949219 -193.9259375 96.42070313 -193.1875 95.484375 C-181.06200939 80.37050993 -167.63769845 66.18044784 -152.359375 54.23828125 C-151.42222656 53.47257812 -150.48507812 52.706875 -149.51953125 51.91796875 C-107.84828249 18.55951736 -53.24527674 0.41106138 0 0 Z " fill="#000000" transform="translate(2037.359375,445.76171875)"/>
<path d="M0 0 C1.05486603 -0.00983917 2.10973206 -0.01967834 3.19656372 -0.02981567 C26.30091564 -0.20087423 48.88189436 -0.18147503 71.640625 4.23828125 C72.87248535 4.47434082 74.1043457 4.71040039 75.37353516 4.95361328 C106.59335137 11.1464685 135.20487872 23.08741363 163.85546875 36.64453125 C177.20855536 42.95415257 190.45841909 49.01788906 204.640625 53.23828125 C205.64138062 53.53653809 205.64138062 53.53653809 206.66235352 53.84082031 C215.91283083 56.38659508 228.1142407 57.35181901 236.7265625 52.546875 C237.67402344 51.89912109 237.67402344 51.89912109 238.640625 51.23828125 C239.33414062 50.77550781 240.02765625 50.31273437 240.7421875 49.8359375 C254.85882986 39.02375262 257.59332738 16.42747171 261.640625 0.23828125 C268.240625 0.23828125 274.840625 0.23828125 281.640625 0.23828125 C282.41012589 30.19994896 283.17523039 60.16172578 283.93371862 90.12367426 C284.02381168 93.68238528 284.11394435 97.24109529 284.20410156 100.79980469 C284.22204525 101.50810906 284.23998894 102.21641343 284.25847638 102.94618157 C284.54693166 114.32887956 284.838577 125.71149361 285.13145745 137.09407851 C285.43319405 148.82369548 285.73137245 160.55339924 286.02642727 172.2831862 C286.1917213 178.85051308 286.35863007 185.41779188 286.52944946 191.98497772 C287.25904299 220.07519757 287.86018072 248.13776225 287.640625 276.23828125 C279.060625 276.23828125 270.480625 276.23828125 261.640625 276.23828125 C261.228125 274.30210937 260.815625 272.3659375 260.390625 270.37109375 C253.64397265 239.26241048 244.65454628 209.44897641 229.640625 181.23828125 C229.0825415 180.172146 229.0825415 180.172146 228.51318359 179.08447266 C218.59095934 160.20210416 206.2699325 143.46528338 191.89453125 127.71484375 C190.3664054 126.0357592 188.85376642 124.34247302 187.35546875 122.63671875 C182.7369441 117.39235629 177.98334746 112.72796399 172.640625 108.23828125 C171.65707031 107.366875 170.67351562 106.49546875 169.66015625 105.59765625 C156.61273464 94.07243383 142.59565434 83.82285995 127.43212891 75.25146484 C125.67447512 74.25742516 123.92887071 73.24217564 122.18359375 72.2265625 C107.70952674 63.9928118 91.95805991 58.12366888 75.890625 53.86328125 C75.04242187 53.63688965 74.19421875 53.41049805 73.3203125 53.17724609 C57.52195728 49.23062245 41.95046908 47.70820039 25.703125 47.86328125 C24.82910034 47.86793396 23.95507568 47.87258667 23.05456543 47.87738037 C10.40789448 47.95622351 -2.02132422 48.19034926 -14.359375 51.23828125 C-15.16068848 51.43164062 -15.96200195 51.625 -16.78759766 51.82421875 C-48.60396105 59.78598877 -76.99612882 78.08202192 -94.22265625 106.4765625 C-107.41075336 129.16531489 -111.55110164 155.48648872 -105.19628906 181.16235352 C-98.50430313 205.42221315 -81.47165263 226.31138323 -62.359375 242.23828125 C-61.43898438 243.04652344 -60.51859375 243.85476563 -59.5703125 244.6875 C-30.75252189 269.8984838 4.58047662 286.63810699 38.39013672 304.04077148 C41.73588219 305.76665144 45.07376476 307.50728886 48.41064453 309.25024414 C60.56330628 315.58947125 72.75514979 321.8331211 85.03125 327.9296875 C86.00405442 328.41317563 86.00405442 328.41317563 86.99651146 328.9064312 C92.96129764 331.87070286 98.92781898 334.83144878 104.89941406 337.78198242 C120.95627136 345.7189132 136.76284017 353.89799843 152.26963806 362.88058472 C155.30838204 364.62065848 158.37759855 366.30047924 161.45690918 367.96746826 C192.45506938 384.78965213 223.10175429 404.55981358 249.75390625 427.75390625 C252.38941662 430.02208568 255.08796473 432.16171514 257.828125 434.30078125 C269.92875877 444.16253124 281.30109109 455.72463528 290.640625 468.23828125 C291.12305664 468.87137207 291.60548828 469.50446289 292.10253906 470.15673828 C299.84236599 480.34257608 306.61199738 490.75521518 312.52490234 502.10058594 C313.58313645 504.12813469 314.66629806 506.14044723 315.75390625 508.15234375 C343.83721406 561.04875425 346.46257351 627.70261114 329.1953125 684.35546875 C320.26774567 712.72725406 306.13719456 737.99852584 287.640625 761.23828125 C287.19348145 761.80256836 286.74633789 762.36685547 286.28564453 762.94824219 C279.72460399 771.13206122 272.4632661 778.61098841 265.078125 786.05078125 C264.21582275 786.9224292 263.35352051 787.79407715 262.46508789 788.69213867 C256.49934465 794.62850792 250.23300053 800.01174569 243.640625 805.23828125 C242.55699527 806.11942728 241.47359969 807.00086151 240.390625 807.8828125 C203.25217025 837.16099771 158.8646176 854.48649065 112.515625 862.42578125 C111.61110596 862.58087158 110.70658691 862.73596191 109.7746582 862.89575195 C106.73477385 863.38795947 103.69205817 863.82333232 100.640625 864.23828125 C99.68937241 864.3706871 99.68937241 864.3706871 98.71890259 864.50576782 C84.92330468 866.36883564 71.18859367 866.57875628 57.2824707 866.55395508 C53.60793008 866.55080679 49.93420685 866.57430567 46.25976562 866.59960938 C25.42224453 866.65611507 4.7891461 865.02017587 -15.609375 860.61328125 C-16.80224121 860.35877197 -17.99510742 860.1042627 -19.22412109 859.84204102 C-51.6504465 852.67079369 -82.64387725 840.59857057 -113.22583008 827.86230469 C-122.09900715 824.22055804 -131.01949682 821.40009575 -140.359375 819.23828125 C-141.14441406 819.04105469 -141.92945313 818.84382813 -142.73828125 818.640625 C-161.6939878 815.73088167 -176.71147919 820.32648474 -192.2421875 831.26953125 C-204.40865507 840.62313863 -211.17375219 853.00761069 -218.359375 866.23828125 C-226.279375 866.23828125 -234.199375 866.23828125 -242.359375 866.23828125 C-242.359375 762.94828125 -242.359375 659.65828125 -242.359375 553.23828125 C-234.439375 553.23828125 -226.519375 553.23828125 -218.359375 553.23828125 C-217.77671875 555.708125 -217.1940625 558.17796875 -216.59375 560.72265625 C-202.54899703 619.48575024 -181.69717963 677.35523663 -142.359375 724.23828125 C-141.94284668 724.74359375 -141.52631836 725.24890625 -141.09716797 725.76953125 C-130.79713598 738.25174221 -119.74103843 750.14765879 -106.984375 760.16015625 C-105.23910773 761.54182617 -103.52940963 762.96968823 -101.859375 764.44140625 C-67.8962752 794.25784852 -23.98484877 813.9616057 20.640625 820.23828125 C21.86604004 820.41335205 23.09145508 820.58842285 24.35400391 820.76879883 C28.87451986 821.32446627 33.35563752 821.41766705 37.90625 821.44140625 C38.77973083 821.44710632 39.65321167 821.4528064 40.55316162 821.4586792 C42.39871023 821.46808081 44.24427526 821.4746438 46.08984375 821.47851562 C48.84146682 821.48810985 51.5923052 821.51913271 54.34375 821.55078125 C95.44499034 821.79682742 134.22137424 808.51959284 163.828125 779.48828125 C185.86843553 757.19730422 197.9026429 728.79456657 197.88964844 697.37719727 C197.36888188 664.7124489 181.41401814 635.74616346 159.11669922 612.76123047 C157.70801422 611.30781051 156.31643025 609.83787386 154.92578125 608.3671875 C128.27618912 580.7784027 91.61503409 562.27341387 57.90600586 544.93505859 C55.52449335 543.69756238 53.15145966 542.44881622 50.78344727 541.18603516 C40.92880979 535.94000517 30.98985548 530.87688906 20.99609375 525.90234375 C20.34494347 525.57809292 19.69379318 525.25384209 19.02291107 524.91976547 C12.93297836 521.88792221 6.84061679 518.86097984 0.74584961 515.83886719 C-15.06218151 507.99797066 -30.76626924 500.03995563 -46.18502808 491.44885254 C-48.10126502 490.38198441 -50.02158741 489.32334547 -51.94555664 488.27050781 C-82.20334324 471.6952831 -112.47693521 453.98543587 -139.359375 432.23828125 C-140.28105469 431.50738281 -141.20273438 430.77648437 -142.15234375 430.0234375 C-159.88908656 415.78901344 -177.76463857 399.52453456 -191.359375 381.23828125 C-192.23162252 380.09493892 -193.10402961 378.95171832 -193.9765625 377.80859375 C-215.95003907 348.72424535 -231.80275701 316.24389317 -238.359375 280.23828125 C-238.52163574 279.38782227 -238.68389648 278.53736328 -238.85107422 277.66113281 C-249.38630613 220.40774657 -236.57349519 158.52374743 -204.359375 110.23828125 C-201.51663023 106.11413912 -198.48265287 102.1536134 -195.359375 98.23828125 C-194.64265625 97.32949219 -193.9259375 96.42070313 -193.1875 95.484375 C-181.06200939 80.37050993 -167.63769845 66.18044784 -152.359375 54.23828125 C-151.42222656 53.47257812 -150.48507812 52.706875 -149.51953125 51.91796875 C-107.84828249 18.55951736 -53.24527674 0.41106138 0 0 Z " fill="#000000" transform="translate(1317.359375,445.76171875)"/>
<path d="M0 0 C131.01 0 262.02 0 397 0 C397 6.93 397 13.86 397 21 C394.36773437 21.10957031 391.73546875 21.21914063 389.0234375 21.33203125 C343.21536572 21.12928381 343.21536572 21.12928381 304 40.9375 C297.35666165 49.26551267 296.10880629 58.60631915 297 69 C299.41966426 85.41357505 305.78212502 100.64462677 312.11132812 115.86120605 C313.03737402 118.0899492 313.95856279 120.32065424 314.87890625 122.55175781 C326.4334958 150.53661855 338.39352013 178.35030289 350.34620667 206.16677856 C355.40747115 217.94546346 360.45743312 229.72897851 365.50604248 241.51309204 C368.0035403 247.34227051 370.50180984 253.17111822 373 259 C374.00000368 261.33333175 375.00000368 263.66666509 376 266 C376.495 267.155 376.99 268.31 377.5 269.5 C403 329 428.5 388.5 454 448 C454.49493454 449.1548439 454.98986908 450.30968781 455.49980164 451.49952698 C456.50047267 453.83443284 457.50113387 456.16934292 458.50178528 458.5042572 C460.99143812 464.31356526 463.48125806 470.12280158 465.97143555 475.93188477 C470.59469976 486.71750941 475.21643554 497.50378111 479.83230591 508.29257202 C481.71357688 512.68967606 483.59567959 517.08642396 485.47795296 521.48309898 C486.74844229 524.45092229 488.01833971 527.41899659 489.28735352 530.38745117 C496.09142758 546.30302759 502.99768228 562.17060994 510 578 C519.45665764 557.22036411 528.86253719 536.42228259 538 515.5 C544.06292036 501.61843651 550.23227885 487.79029633 556.5 474 C563.17235153 459.31861472 569.72441199 444.5899794 576.18212891 429.81298828 C581.70798237 417.17178443 587.31876285 404.57210649 593 392 C599.08390538 378.53597899 605.08033129 365.03702888 611 351.5 C616.9651063 337.86072397 623.00168618 324.25650951 629.125 310.6875 C629.68770599 309.4404982 629.68770599 309.4404982 630.26177979 308.16830444 C630.6357489 307.33956818 631.00971802 306.51083191 631.39501953 305.65698242 C637.92787879 291.1783687 644.38837507 276.66851424 650.82649231 262.14756775 C653.46808659 256.19214636 656.12156372 250.24207532 658.77734375 244.29296875 C695.72404061 170.84016836 695.72404061 170.84016836 715 92 C715.05285156 91.18660156 715.10570312 90.37320313 715.16015625 89.53515625 C715.69702067 73.63930112 710.98184038 59.78218669 700.75 47.625 C677.93042372 23.80151681 638.63423121 22.73909543 608 22 C608 14.74 608 7.48 608 0 C698.09 0 788.18 0 881 0 C881 7.26 881 14.52 881 22 C878.504375 22.53625 876.00875 23.0725 873.4375 23.625 C848.32226081 29.37497227 827.10363194 42.99475737 809 61 C808.27103516 61.72292236 808.27103516 61.72292236 807.52734375 62.46044922 C799.81520783 70.21723988 793.77082024 78.73498773 788 88 C787.63729004 88.57524414 787.27458008 89.15048828 786.90087891 89.74316406 C766.63402328 122.01829367 750.28612123 157.08496346 734.76487732 191.83535767 C732.56346807 196.75978856 730.3296954 201.66862731 728.078125 206.5703125 C727.74862854 207.28771103 727.41913208 208.00510956 727.07965088 208.74424744 C726.41004167 210.2018654 725.7403841 211.65946114 725.07067871 213.11703491 C718.96825541 226.40600556 712.98526184 239.74410533 707.07067871 253.11761475 C701.91452759 264.76947732 696.64913874 276.36724933 691.3125 287.9375 C684.99087015 301.64470687 678.75924516 315.387296 672.60569763 329.17102051 C668.87833856 337.51712141 665.12613989 345.85206756 661.375 354.1875 C660.99658966 355.0285025 660.61817932 355.869505 660.228302 356.73599243 C653.93857955 370.71298709 647.62533054 384.67926238 641.30389404 398.64193726 C635.51890343 411.42033285 629.75173755 424.20660391 624 437 C617.45493012 451.55797847 610.88555915 466.10478619 604.30224609 480.64550781 C598.51781017 493.42271551 592.75119999 506.20779958 587 519 C580.45493012 533.55797847 573.88555915 548.10478619 567.30224609 562.64550781 C561.51781001 575.42271587 555.75131889 588.20785283 550 601 C543.87049499 614.63241077 537.72484189 628.25740023 531.5625 641.875 C531.16984955 642.7428009 530.7771991 643.61060181 530.37265015 644.50469971 C526.37009615 653.35048463 522.36533196 662.19526283 518.35600281 671.03797913 C516.34064844 675.48326623 514.32631045 679.92901328 512.3125 684.375 C511.91654633 685.24907501 511.52059265 686.12315002 511.11264038 687.02371216 C505.3140094 699.82937426 499.58648375 712.66500009 493.89819336 725.51998901 C488.44743988 737.82976663 482.86131706 750.0737198 477.22354126 762.29882812 C471.29470734 775.15575831 465.4625701 788.05184928 459.69180298 800.98068237 C455.54429505 810.26718799 451.3628126 819.53847359 447.1875 828.8125 C446.3711615 830.62605181 445.55483629 832.4396096 444.73852539 834.25317383 C442.82594535 838.50223381 440.91296516 842.75111331 439 847 C431.74 847 424.48 847 417 847 C411.17960003 834.79332783 405.83154095 822.41027698 400.53170776 809.96990967 C397.8719518 803.72747711 395.20378449 797.48864376 392.53515625 791.25 C392.12577159 790.29266527 392.12577159 790.29266527 391.70811653 789.31599045 C386.00397434 775.97935797 380.22672585 762.67490325 374.4375 749.375 C366.22388965 730.49935655 358.11667796 711.58080847 350.07028198 692.6333313 C342.78941103 675.49307402 335.42637411 658.39020649 328 641.3125 C327.51240204 640.19114655 327.02480408 639.06979309 326.52243042 637.91445923 C326.03992828 636.80484833 325.55742615 635.69523743 325.06030273 634.55200195 C324.11178329 632.37061987 323.16329633 630.18922366 322.21484375 628.0078125 C321.75822861 626.95762436 321.30161346 625.90743622 320.8311615 624.82542419 C317.04959244 616.12358936 313.29448921 607.41070274 309.5625 598.6875 C309.14136932 597.70321014 309.14136932 597.70321014 308.71173096 596.69903564 C307.5249488 593.92458506 306.33862022 591.14994102 305.152771 588.37509155 C300.33415886 577.09982975 295.50536859 565.8289225 290.67643356 554.55807877 C290.14204352 553.31079052 289.60767311 552.06349387 289.0733223 550.81618881 C282.77578039 536.11629963 276.46758637 521.42166579 270.08935547 506.7565918 C264.07150858 492.89864762 258.13970461 479.0036571 252.19293213 465.1151123 C243.385467 444.54074935 243.385467 444.54074935 234.5 424 C228.00388579 409.06433575 221.6037855 394.08750691 215.19293213 379.1151123 C206.385467 358.54074935 206.385467 358.54074935 197.5 338 C191.00388579 323.06433575 184.6037855 308.08750691 178.19293213 293.1151123 C171.85258846 278.30768898 165.50520752 263.50398065 159.07885742 248.73364258 C155.53173211 240.56713909 152.02061877 232.38556714 148.51953125 224.19921875 C131.44366426 184.27211302 114.32312582 144.37474517 96 105 C95.16879639 103.21360107 95.16879639 103.21360107 94.32080078 101.39111328 C74.18797829 56.57346891 74.18797829 56.57346891 35.21875 29.52734375 C23.739799 25.64964026 11.94438497 23.9196333 0 22 C0 14.74 0 7.48 0 0 Z " fill="#000000" transform="translate(94,465)"/>
</svg>
